<?xml version="1.0" standalone="no"?>
<!DOCTYPE svg PUBLIC "-//W3C//DTD SVG 20010904//EN"
 "http://www.w3.org/TR/2001/REC-SVG-20010904/DTD/svg10.dtd">
<svg version="1.0" xmlns="http://www.w3.org/2000/svg"
 width="700.000000pt" height="700.000000pt" viewBox="0 0 700.000000 700.000000"
 preserveAspectRatio="xMidYMid meet">
<metadata>
Created by potrace 1.14, written by Peter Selinger 2001-2017
</metadata>
<g transform="translate(0.000000,700.000000) scale(0.100000,-0.100000)"
fill="#000000" stroke="none">
<path d="M3280 6994 c-19 -2 -84 -9 -145 -14 -578 -56 -1180 -283 -1660 -625
-237 -169 -531 -446 -709 -670 -416 -521 -673 -1147 -748 -1820 -17 -155 -17
-575 0 -730 52 -469 198 -931 418 -1327 290 -523 731 -983 1239 -1294 439
-269 920 -432 1460 -496 145 -17 576 -17 730 0 822 91 1556 447 2131 1034 203
206 348 390 487 618 274 449 433 916 499 1465 16 136 16 592 0 730 -86 725
-352 1347 -803 1885 -122 145 -351 370 -494 484 -510 407 -1117 661 -1775 742
-117 15 -553 27 -630 18z m-1056 -1178 c155 -30 274 -94 391 -211 162 -162
235 -353 222 -580 -22 -389 -328 -692 -717 -712 -229 -12 -414 59 -576 221
-162 162 -233 347 -221 576 16 316 223 586 525 684 112 37 252 45 376 22z
m2286 -622 c23 -36 40 -70 38 -76 -2 -5 -244 -157 -538 -338 -294 -180 -536
-333 -538 -339 -2 -5 79 -194 179 -418 256 -574 234 -522 210 -498 -38 38
-780 929 -776 933 11 12 1362 800 1372 801 6 1 30 -29 53 -65z m244 -73 c3 -5
88 -220 189 -479 l184 -470 -546 -372 c-300 -205 -552 -373 -559 -374 -8 -1
-101 197 -234 493 -172 385 -217 496 -207 502 8 4 271 165 584 358 314 192
573 350 577 351 4 0 9 -4 12 -9z m-2715 -1006 c212 -8 413 -20 446 -26 78 -14
160 -58 218 -117 29 -30 197 -290 453 -702 224 -360 413 -661 420 -669 10 -11
83 29 446 246 238 143 456 269 483 279 38 14 77 19 160 19 98 0 116 -3 167
-27 80 -37 152 -107 191 -187 30 -61 32 -73 32 -166 -1 -133 -24 -193 -109
-281 -55 -57 -118 -96 -696 -430 -349 -202 -657 -375 -685 -385 -153 -52 -310
-21 -424 86 -27 25 -204 259 -393 520 -188 261 -349 477 -356 480 -22 8 -52
-14 -52 -38 0 -13 107 -170 265 -386 l265 -365 0 -637 0 -637 -111 35 c-359
112 -767 326 -1044 547 -182 146 -412 380 -565 576 l-89 115 -1 890 c0 950 0
936 50 1035 52 103 134 175 245 217 75 28 153 29 684 8z m3766 -225 c308 -128
564 -236 568 -240 5 -4 -234 -201 -531 -438 l-539 -432 -96 43 -96 42 -16 51
c-19 65 -85 164 -135 204 -130 103 -332 133 -480 69 l-49 -21 -190 83 c-105
46 -187 87 -183 91 38 36 1160 788 1172 785 8 -2 267 -109 575 -237z m-2106
-303 c132 -159 241 -290 241 -292 0 -2 -15 -8 -32 -14 -18 -5 -147 -46 -286
-91 -139 -45 -257 -80 -262 -78 -19 6 -389 613 -377 618 68 25 455 148 463
147 6 -1 120 -132 253 -290z"/>
</g>
</svg>
